HIERARCHY
ROOT Hips
{
 OFFSET 0.000000 0.000000 0.000000
 CHANNELS 6 Xposition Yposition Zposition Yrotation Xrotation Zrotation
 JOINT Chest
 {
  OFFSET 0.000000 9.588913 -0.003946
  CHANNELS 3 Yrotation Xrotation Zrotation
  JOINT Chest2
  {
   OFFSET 0.000000 9.541882 0.008053
   CHANNELS 3 Yrotation Xrotation Zrotation
   JOINT Chest3
   {
    OFFSET 0.000000 9.501360 0.000000
    CHANNELS 3 Yrotation Xrotation Zrotation
    JOINT Chest4
    {
     OFFSET 0.000000 9.491660 0.000000
     CHANNELS 3 Yrotation Xrotation Zrotation
     JOINT Neck
     {
      OFFSET 0.000000 14.331917 0.000000
      CHANNELS 3 Yrotation Xrotation Zrotation
      JOINT Head
      {
       OFFSET 0.000000 8.884799 0.017034
       CHANNELS 3 Yrotation Xrotation Zrotation
       End Site
       {
        OFFSET 0.000000 16.896195 0.008993
       }
      }
     }
     JOINT RightCollar
     {
      OFFSET -2.923010 9.499495 0.000000
      CHANNELS 3 Yrotation Xrotation Zrotation
      JOINT RightShoulder
      {
       OFFSET -13.795216 0.000000 0.000000
       CHANNELS 3 Yrotation Xrotation Zrotation
       JOINT RightElbow
       {
        OFFSET -30.272209 0.000000 0.000000
        CHANNELS 3 Yrotation Xrotation Zrotation
        JOINT RightWrist
        {
         OFFSET -24.478199 0.000000 0.000000
         CHANNELS 3 Yrotation Xrotation Zrotation
         End Site
         {
          OFFSET -18.090752 0.000000 0.000000
         }
        }
       }
      }
     }
     JOINT LeftCollar
     {
      OFFSET 2.923010 9.499495 0.000000
      CHANNELS 3 Yrotation Xrotation Zrotation
      JOINT LeftShoulder
      {
       OFFSET 13.795216 0.000000 0.000000
       CHANNELS 3 Yrotation Xrotation Zrotation
       JOINT LeftElbow
       {
        OFFSET 30.272209 0.000000 0.000000
        CHANNELS 3 Yrotation Xrotation Zrotation
        JOINT LeftWrist
        {
         OFFSET 24.478199 0.000000 0.000000
         CHANNELS 3 Yrotation Xrotation Zrotation
         End Site
         {
          OFFSET 18.090752 0.000000 0.000000
         }
        }
       }
      }
     }
    }
   }
  }
 }
 JOINT RightHip
 {
  OFFSET -7.826875 0.019532 0.001973
  CHANNELS 3 Yrotation Xrotation Zrotation
  JOINT RightKnee
  {
   OFFSET 0.000000 -40.546152 -0.001885
   CHANNELS 3 Yrotation Xrotation Zrotation
   JOINT RightAnkle
   {
    OFFSET 0.000000 -39.417092 -0.003189
    CHANNELS 3 Yrotation Xrotation Zrotation
    JOINT RightToe
    {
     OFFSET 0.000000 -7.579396 17.243563
     CHANNELS 3 Yrotation Xrotation Zrotation
     End Site
     {
      OFFSET 0.000000 -1.500329 6.694466
     }
    }
   }
  }
 }
 JOINT LeftHip
 {
  OFFSET 7.826875 0.019532 0.001973
  CHANNELS 3 Yrotation Xrotation Zrotation
  JOINT LeftKnee
  {
   OFFSET 0.000000 -40.546152 -0.001885
   CHANNELS 3 Yrotation Xrotation Zrotation
   JOINT LeftAnkle
   {
    OFFSET 0.000000 -39.417092 -0.003189
    CHANNELS 3 Yrotation Xrotation Zrotation
    JOINT LeftToe
    {
     OFFSET 0.000000 -7.579396 17.243563
     CHANNELS 3 Yrotation Xrotation Zrotation
     End Site
     {
      OFFSET 0.000000 -1.500329 6.694466
     }
    }
   }
  }
 }
}
MOTION
Frames: 10
Frame Time: 0.008333
0.000000 87.345680 0.000000 0.000000 -5.767889 0.000000 0.000000 11.653876 0.000000 0.000000 -5.885988 0.000000 0.000000 -0.000000 0.000000 0.000000 -0.000000 0.000000 0.000000 12.528808 0.000000 0.000000 0.711711 0.000000 0.000000 -0.000000 0.000000 0.000000 -0.000000 0.000000 2.309063 -0.000000 0.000000 -2.309063 -0.000000 -0.000000 0.000000 -0.000000 0.000000 0.000000 0.000000 0.000000 -2.309063 0.000000 0.000000 2.309063 -0.000000 0.000000 0.000000 8.520374 0.000000 0.000000 1.905768 0.000000 -0.000000 -4.658254 0.000000 0.000000 -0.000000 0.000000 0.000000 8.520374 0.000000 0.000000 1.905768 0.000000 -0.000000 -4.658254 0.000000 0.000000 -0.000000 0.000000
-5.668490 89.250097 -5.697139 -137.129485 -6.296163 0.074564 2.101738 1.488294 -0.423342 1.217785 0.850736 -0.234262 1.521729 1.064182 -0.290005 1.217785 0.850736 -0.234262 0.444367 24.141496 0.930211 0.268102 0.325241 0.904323 1.054564 0.044509 1.942586 -12.972477 5.008796 90.706420 2.678064 -8.783351 2.348611 3.751258 -6.848607 1.668533 -5.851324 0.352672 -1.255335 13.382389 4.665805 -86.601929 2.558311 -8.976293 -3.498775 -0.823959 -6.853794 -1.187672 -3.311409 7.500745 0.115830 -0.549700 3.341031 -0.857664 1.764317 -5.120499 -0.024395 0.018499 -0.000985 0.006258 3.728776 7.344363 -1.068130 -2.809612 0.887261 0.087440 -1.468046 -3.035548 1.836203 -0.019212 0.010049 -0.004216
-5.671653 89.250894 -5.704441 -137.129198 -6.301955 0.081621 2.094065 1.486658 -0.420548 1.212868 0.849411 -0.234025 1.515584 1.062522 -0.289725 1.212868 0.849411 -0.234025 0.455702 24.151863 0.932680 0.279819 0.337897 0.904453 1.053450 0.078517 1.944033 -13.033511 5.042760 90.704053 2.752895 -8.725004 2.386824 3.751236 -6.844821 1.657960 -5.838821 0.366463 -1.259140 13.405193 4.667267 -86.596553 2.448587 -8.871935 -3.580905 -0.851474 -6.853401 -1.173998 -3.323087 7.543315 0.104916 -0.549421 3.280478 -0.848164 1.769789 -5.098600 -0.029626 0.019482 -0.000416 0.005722 3.731727 7.362147 -1.071833 -2.800266 0.869163 0.086912 -1.478766 -3.019884 1.831262 -0.019395 0.003363 -0.002337
-5.675102 89.251683 -5.713048 -137.128454 -6.306699 0.088097 2.085797 1.484591 -0.417608 1.207474 0.847808 -0.233553 1.508844 1.060513 -0.289153 1.207474 0.847808 -0.233553 0.467714 24.161720 0.935134 0.292271 0.349939 0.904410 1.050458 0.112577 1.941655 -13.082212 5.077727 90.699426 2.833482 -8.659050 2.428797 3.757015 -6.838718 1.654970 -5.823767 0.380879 -1.260345 13.422978 4.668033 -86.591794 2.342838 -8.789961 -3.674416 -0.878117 -6.858104 -1.170993 -3.333390 7.583189 0.094903 -0.548058 3.225392 -0.838322 1.773216 -5.079625 -0.035024 0.019440 -0.000568 0.005054 3.738100 7.376548 -1.074378 -2.791531 0.856914 0.085917 -1.490412 -3.006978 1.828100 -0.019390 -0.003241 -0.002104
-5.678669 89.252365 -5.722692 -137.125596 -6.309228 0.093003 2.076602 1.481456 -0.413966 1.201392 0.845666 -0.232714 1.501243 1.057830 -0.288125 1.201392 0.845666 -0.232714 0.479868 24.171870 0.937032 0.305004 0.362334 0.903737 1.049396 0.146162 1.937453 -13.125089 5.113710 90.693152 2.920157 -8.585318 2.469902 3.763261 -6.834591 1.654068 -5.805025 0.395276 -1.261705 13.429476 4.667837 -86.590852 2.243240 -8.736165 -3.773806 -0.901105 -6.868040 -1.174224 -3.344788 7.619822 0.086269 -0.547464 3.174127 -0.828058 1.777596 -5.062344 -0.039233 0.018664 -0.001504 0.003179 3.745891 7.386700 -1.075984 -2.784302 0.849422 0.084468 -1.497114 -2.996432 1.826322 -0.018736 -0.009599 -0.002277
-5.682400 89.252854 -5.732988 -137.121585 -6.308765 0.096976 2.067761 1.477537 -0.409934 1.195281 0.842985 -0.231878 1.493608 1.054472 -0.287103 1.195281 0.842985 -0.231878 0.490567 24.182237 0.938771 0.316203 0.374992 0.903222 1.050223 0.176955 1.936400 -13.167482 5.149206 90.681935 3.012575 -8.506797 2.509629 3.762093 -6.831855 1.655355 -5.786202 0.408832 -1.263672 13.423202 4.665544 -86.593519 2.152489 -8.711767 -3.875314 -0.920425 -6.880784 -1.182330 -3.355664 7.651253 0.078558 -0.549201 3.128425 -0.816903 1.782600 -5.048065 -0.043565 0.017652 -0.002583 0.001070 3.754930 7.390855 -1.078567 -2.775724 0.848799 0.084209 -1.499298 -2.988725 1.823791 -0.016668 -0.016159 -0.001334
-5.686458 89.253111 -5.743778 -137.116575 -6.305869 0.100293 2.058323 1.473653 -0.406601 1.188711 0.840032 -0.231223 1.485398 1.050775 -0.286309 1.188711 0.840032 -0.231223 0.501433 24.192719 0.940754 0.327528 0.387798 0.902936 1.054280 0.203445 1.939192 -13.207388 5.185776 90.666728 3.109656 -8.431776 2.550682 3.752072 -6.827511 1.659202 -5.764257 0.421785 -1.264385 13.407767 4.661182 -86.596229 2.070291 -8.711659 -3.978470 -0.938166 -6.890568 -1.194471 -3.364413 7.676039 0.071774 -0.551073 3.092225 -0.805031 1.785059 -5.038734 -0.049746 0.016712 -0.003821 0.000280 3.766077 7.388998 -1.079263 -2.766954 0.856042 0.082539 -1.506416 -2.983797 1.821456 -0.014279 -0.022910 -0.000232
-5.691066 89.253138 -5.755150 -137.111294 -6.302387 0.102759 2.048285 1.470172 -0.404175 1.181700 0.837370 -0.230340 1.476638 1.047440 -0.285230 1.181700 0.837370 -0.230340 0.513204 24.203759 0.942584 0.339869 0.401287 0.902280 1.060383 0.225279 1.941699 -13.244286 5.223244 90.651701 3.207809 -8.364547 2.594446 3.739167 -6.819744 1.661403 -5.738048 0.434356 -1.265059 13.391725 4.652158 -86.597344 1.995335 -8.721504 -4.080650 -0.953085 -6.896872 -1.206700 -3.369865 7.695844 0.067415 -0.550979 3.065798 -0.796332 1.784525 -5.034112 -0.053979 0.015541 -0.005577 -0.000461 3.781494 7.383744 -1.075983 -2.760890 0.869947 0.077950 -1.521770 -2.981044 1.820697 -0.012686 -0.029632 -0.000020
-5.696483 89.252943 -5.767026 -137.106883 -6.299656 0.105297 2.039664 1.467491 -0.402315 1.175362 0.835344 -0.229035 1.468719 1.044900 -0.283620 1.175362 0.835344 -0.229035 0.522294 24.214827 0.943547 0.349509 0.414797 0.901298 1.065962 0.244158 1.941610 -13.284261 5.258682 90.638718 3.303943 -8.302684 2.638399 3.729279 -6.811714 1.661724 -5.714386 0.445600 -1.267899 13.382561 4.635639 -86.598848 1.928179 -8.727852 -4.175130 -0.966070 -6.902869 -1.216468 -3.371564 7.713013 0.065273 -0.551289 3.046778 -0.792680 1.782990 -5.032927 -0.054197 0.013853 -0.007764 -0.001994 3.802161 7.377652 -1.069189 -2.752985 0.888588 0.070867 -1.552661 -2.979822 1.821774 -0.012472 -0.036033 -0.001213
-5.702725 89.252528 -5.779263 -137.101866 -6.297975 0.107991 2.032120 1.466227 -0.399845 1.169640 0.834132 -0.226997 1.461572 1.043375 -0.281089 1.169640 0.834132 -0.226997 0.526905 24.224774 0.942478 0.354766 0.426911 0.899134 1.071138 0.261470 1.938487 -13.328411 5.288516 90.625560 3.394076 -8.244335 2.680699 3.723199 -6.807984 1.664259 -5.693914 0.453286 -1.275308 13.376650 4.613292 -86.602511 1.869578 -8.729062 -4.257450 -0.979871 -6.907902 -1.222572 -3.373217 7.728315 0.063789 -0.553553 3.034378 -0.791382 1.782976 -5.034919 -0.054095 0.012055 -0.010181 -0.002629 3.826277 7.373200 -1.059434 -2.740639 0.907410 0.059840 -1.596451 -2.978567 1.827221 -0.013362 -0.041506 -0.004364
